<svg version="1.1" id="Layer_1" xmlns="http://www.w3.org/2000/svg" xmlns:xlink="http://www.w3.org/1999/xlink" x="0px" y="0px" width="100%" viewBox="0 0 1024 1024" enable-background="new 0 0 1024 1024" xml:space="preserve">
<circle cx="512" cy="512" r="512" fill="#FFFFFF"/>
  <path fill="#000000" opacity="1.000000" stroke="none" d="&#10;M607.468384,699.680786 &#10;&#9;C616.942139,723.071350 623.763733,746.808716 627.388855,771.441040 &#10;&#9;C629.961792,771.758057 631.308777,770.040710 632.838867,768.978516 &#10;&#9;C692.002869,727.906982 730.343811,672.631775 746.677795,602.270813 &#10;&#9;C752.713135,576.272766 754.368103,549.897339 752.441589,523.458557 &#10;&#9;C750.305908,494.150696 743.630676,465.697296 732.024048,438.551392 &#10;&#9;C728.748718,430.890991 731.065735,423.213562 737.653625,420.118561 &#10;&#9;C744.762451,416.778809 751.883789,419.612427 755.647644,427.501678 &#10;&#9;C766.254333,449.734161 772.371338,473.281006 776.432068,497.494843 &#10;&#9;C780.005310,518.801331 780.644958,540.296997 779.069946,561.648254 &#10;&#9;C775.689697,607.472961 763.493652,650.922363 740.419250,690.984070 &#10;&#9;C709.494141,744.676025 666.221802,785.085083 610.167603,811.607910 &#10;&#9;C582.290100,824.798523 552.994629,833.068420 522.288208,836.484863 &#10;&#9;C442.330383,845.381165 370.925385,824.573792 308.303253,774.351685 &#10;&#9;C256.829956,733.070618 223.572754,679.775574 206.800400,616.099365 &#10;&#9;C205.861954,612.536560 204.366623,610.496582 200.693695,609.291016 &#10;&#9;C174.962875,600.845642 158.705444,578.095947 158.634064,551.132629 &#10;&#9;C158.564026,524.680725 170.040344,502.662994 184.899063,481.909119 &#10;&#9;C186.254410,480.016022 187.750793,478.219543 189.247696,476.433533 &#10;&#9;C190.506699,474.931335 191.774231,472.813019 194.107544,474.381165 &#10;&#9;C196.158035,475.759186 194.883286,477.712433 194.182343,479.335663 &#10;&#9;C189.420670,490.362701 185.633896,501.701019 182.968353,513.420288 &#10;&#9;C179.832443,527.207458 178.696869,541.050232 182.490128,554.853516 &#10;&#9;C184.672424,562.794678 187.933670,570.289734 195.334457,574.993225 &#10;&#9;C196.282791,575.595947 197.442596,575.865906 198.703705,576.369568 &#10;&#9;C200.278656,573.932068 199.729111,571.377747 199.540207,569.017334 &#10;&#9;C192.290543,478.427643 219.470535,399.624420 280.982422,332.864349 &#10;&#9;C323.435150,286.789612 375.724487,257.466156 436.857849,244.033966 &#10;&#9;C453.892609,240.291122 471.197968,238.475449 488.664581,237.443619 &#10;&#9;C505.706787,236.436859 522.588196,237.321304 539.491760,238.753021 &#10;&#9;C546.255310,239.325882 553.000000,240.488831 559.657349,241.851746 &#10;&#9;C567.671997,243.492508 571.890869,250.464355 570.170349,258.423584 &#10;&#9;C568.799988,264.762939 562.157837,268.808289 555.092957,267.452911 &#10;&#9;C507.522736,258.326569 461.120850,263.547760 415.472656,278.606110 &#10;&#9;C369.232330,293.859863 329.590546,319.376678 296.836639,355.338348 &#10;&#9;C261.571045,394.057678 239.431458,439.456116 229.386597,490.801331 &#10;&#9;C226.281799,506.671814 224.999313,522.722107 224.792633,538.871582 &#10;&#9;C224.782532,539.660889 224.923508,540.452209 225.024979,541.587708 &#10;&#9;C234.721420,538.810425 244.062561,535.961304 253.497711,533.467896 &#10;&#9;C274.258301,527.981628 295.336090,524.838806 316.823181,523.437988 &#10;&#9;C347.622772,521.430054 377.897583,524.264587 407.997345,530.381531 &#10;&#9;C410.711700,530.933105 413.090393,530.548523 415.653809,529.251099 &#10;&#9;C461.602203,505.994690 504.046082,477.370392 544.859741,446.090454 &#10;&#9;C580.043274,419.125549 611.268311,387.972870 642.201782,356.452026 &#10;&#9;C643.235046,355.399139 644.108643,354.189575 645.479614,352.545929 &#10;&#9;C640.738281,347.760315 636.073486,343.090027 631.451355,338.377991 &#10;&#9;C624.255920,331.042603 624.158997,328.655487 631.287781,321.459229 &#10;&#9;C646.649292,305.952087 662.030762,290.462799 677.595276,275.160553 &#10;&#9;C680.465027,272.339142 680.521118,270.654327 677.625183,267.982391 &#10;&#9;C673.473083,264.151459 669.687683,259.922974 665.379517,255.487137 &#10;&#9;C659.066650,260.439911 654.145752,266.286530 648.657166,271.504761 &#10;&#9;C641.515869,278.294312 639.956726,278.370209 633.115906,271.497131 &#10;&#9;C613.014771,251.301025 592.931641,231.087006 572.855164,210.866455 &#10;&#9;C566.991272,204.960495 567.075134,202.720230 573.005676,196.899796 &#10;&#9;C589.298035,180.910019 605.570862,164.900375 621.820129,148.866867 &#10;&#9;C627.182007,143.576202 630.020081,143.514938 635.241760,148.741241 &#10;&#9;C655.613159,169.130768 675.998474,189.506516 696.365173,209.900726 &#10;&#9;C702.033813,215.577042 701.947510,218.630966 696.237488,224.101822 &#10;&#9;C690.478394,229.619659 684.596924,235.028854 679.189087,241.698380 &#10;&#9;C684.747986,246.629486 690.145447,251.417297 696.364136,256.933624 &#10;&#9;C700.600098,252.477188 705.517761,247.070816 710.691040,241.921158 &#10;&#9;C716.860352,235.779938 722.197998,235.889618 728.444885,242.013885 &#10;&#9;C733.437866,246.908966 738.369995,251.866211 743.354736,256.769867 &#10;&#9;C743.684082,257.093811 744.230652,257.196869 744.918274,257.514557 &#10;&#9;C745.632568,256.975006 746.466064,256.452698 747.172974,255.794479 &#10;&#9;C752.562683,250.775726 752.554993,250.767441 748.762512,244.563080 &#10;&#9;C736.633240,224.720108 737.784546,196.292496 751.476562,177.548004 &#10;&#9;C755.950378,171.423386 759.571045,171.159088 764.778259,176.427582 &#10;&#9;C773.211792,184.960388 781.782776,193.358871 790.129944,201.974670 &#10;&#9;C792.594971,204.519119 794.335510,204.491821 796.640686,201.917007 &#10;&#9;C799.637268,198.569931 802.824646,195.383774 806.063477,192.267105 &#10;&#9;C808.076599,190.329880 808.134033,187.804413 808.597900,185.393341 &#10;&#9;C810.057434,177.807816 815.602112,173.418106 823.531067,173.659576 &#10;&#9;C830.779053,173.880280 836.568604,179.204025 837.299988,186.320694 &#10;&#9;C838.038513,193.506699 833.431274,200.634735 826.212891,201.959045 &#10;&#9;C817.292786,203.595551 813.743774,211.301682 808.171509,216.697556 &#10;&#9;C806.286926,218.522537 808.673523,219.981659 809.861389,221.191315 &#10;&#9;C817.797913,229.273697 825.754395,237.337296 833.781921,245.329132 &#10;&#9;C839.981628,251.501251 839.907288,254.408981 833.158997,259.837921 &#10;&#9;C814.508057,274.842499 789.739807,276.636017 769.179749,264.470856 &#10;&#9;C765.490601,262.287994 757.887756,265.977142 757.482056,270.158905 &#10;&#9;C757.330933,271.717224 758.560669,272.532166 759.447388,273.466187 &#10;&#9;C764.151001,278.420959 768.986450,283.253235 773.608704,288.281952 &#10;&#9;C778.376770,293.469299 778.307922,296.604279 773.369934,301.581848 &#10;&#9;C767.514282,307.484589 761.522217,313.251984 755.344482,319.318390 &#10;&#9;C761.049866,324.650146 766.322998,329.577972 772.131531,335.006104 &#10;&#9;C777.600525,329.738403 783.738892,323.943390 789.742920,318.012421 &#10;&#9;C796.719604,311.120667 798.071350,310.985413 805.099304,317.966095 &#10;&#9;C825.316284,338.046936 845.479736,358.181702 865.631470,378.328064 &#10;&#9;C870.758972,383.454163 870.880554,386.489349 865.866089,391.483032 &#10;&#9;C848.744873,408.533173 831.552246,425.511932 814.330627,442.460846 &#10;&#9;C810.234558,446.492065 807.797363,446.460266 803.686523,442.346039 &#10;&#9;C782.721741,421.363922 761.784424,400.354218 740.899231,379.292847 &#10;&#9;C736.119324,374.472656 736.293640,370.979645 741.150269,365.988953 &#10;&#9;C746.467346,360.525024 751.797363,355.073578 757.180664,349.556274 &#10;&#9;C751.905640,344.604218 746.710510,339.727081 741.087524,334.448364 &#10;&#9;C736.661804,338.711517 731.482056,343.574280 726.444153,348.579742 &#10;&#9;C715.331604,359.620697 704.297546,370.740570 693.217651,381.814362 &#10;&#9;C686.495605,388.532684 681.572021,388.538574 674.879761,381.880371 &#10;&#9;C671.571838,378.589325 667.961182,375.543304 665.039429,371.938995 &#10;&#9;C661.666321,367.778107 659.283936,368.628357 655.944641,372.034027 &#10;&#9;C641.829163,386.429779 627.622009,400.740417 613.224426,414.853729 &#10;&#9;C566.334534,460.817902 516.003845,502.493134 460.036194,537.089050 &#10;&#9;C456.827179,539.072693 453.514648,540.888672 449.473938,543.233154 &#10;&#9;C523.374512,574.475159 576.601685,625.599365 607.468384,699.680786 &#10;M485.501953,811.689087 &#10;&#9;C506.568817,812.150146 527.391296,810.475342 548.716187,804.997070 &#10;&#9;C534.605042,792.328064 529.173157,776.109497 524.338562,759.548157 &#10;&#9;C523.036133,755.086426 521.476257,750.677856 519.712097,746.377136 &#10;&#9;C514.451477,733.552612 505.611206,724.798828 491.565887,722.022949 &#10;&#9;C488.318268,721.381104 485.136871,720.353210 481.971405,719.355652 &#10;&#9;C464.813873,713.948608 455.152771,701.091858 455.762115,683.121094 &#10;&#9;C456.477783,662.014282 466.962067,644.727539 486.346375,640.229980 &#10;&#9;C493.988342,638.456909 501.881775,638.827148 509.596802,637.652405 &#10;&#9;C517.377747,636.467651 525.255005,635.723450 532.972229,633.208008 &#10;&#9;C532.518311,632.261230 532.379700,631.772583 532.088135,631.405457 &#10;&#9;C531.468506,630.625244 530.792664,629.885681 530.099426,629.168640 &#10;&#9;C500.148926,598.188660 464.526672,576.120911 424.081421,561.588074 &#10;&#9;C421.132690,560.528503 418.794861,560.983948 416.134857,562.473633 &#10;&#9;C395.635620,573.953674 374.519684,584.173096 352.667603,592.824097 &#10;&#9;C344.840149,595.922974 336.898743,598.734070 328.635437,601.815918 &#10;&#9;C335.416046,607.757996 341.883118,613.196716 348.083801,618.923889 &#10;&#9;C354.225952,624.596985 360.068359,630.653503 362.329803,639.041748 &#10;&#9;C365.819183,651.985046 361.698883,663.253662 354.255463,673.730286 &#10;&#9;C350.204254,679.432373 346.255463,685.215698 343.516998,691.704468 &#10;&#9;C338.996582,702.415710 341.283020,711.962402 350.122986,719.537659 &#10;&#9;C356.092133,724.652832 362.880188,728.583496 369.400818,732.901367 &#10;&#9;C376.625275,737.685181 383.888763,742.415466 389.585175,749.107910 &#10;&#9;C399.932465,761.264465 400.312988,775.716980 390.602661,788.374268 &#10;&#9;C389.923523,789.259521 388.808777,789.960632 389.452637,792.007812 &#10;&#9;C419.832825,803.632080 451.206268,812.165588 485.501953,811.689087 &#10;M336.787720,656.159546 &#10;&#9;C340.257507,648.516174 339.486145,643.735535 333.522888,637.636108 &#10;&#9;C325.014648,628.933472 315.775757,621.019043 306.714294,612.909485 &#10;&#9;C303.645721,610.163330 300.722351,609.771240 296.787140,610.637939 &#10;&#9;C278.253448,614.720032 259.572388,617.808472 240.479950,617.362976 &#10;&#9;C238.910034,617.326355 237.115814,616.786255 235.835495,618.346008 &#10;&#9;C235.378830,619.952515 236.205887,621.321106 236.632767,622.701111 &#10;&#9;C250.031815,666.017029 272.926910,703.635071 304.897858,735.707397 &#10;&#9;C321.688477,752.551208 340.729858,766.486023 361.265106,778.462280 &#10;&#9;C364.716980,780.475525 366.470612,779.763794 368.581299,776.825867 &#10;&#9;C374.652252,768.375610 374.025543,764.364990 365.430542,758.245422 &#10;&#9;C355.936462,751.485901 345.467834,746.208435 336.303070,738.943848 &#10;&#9;C316.221436,723.025940 311.470581,701.326477 323.123413,678.540710 &#10;&#9;C327.001984,670.956604 331.949860,664.035400 336.787720,656.159546 &#10;M512.368835,660.282410 &#10;&#9;C506.562378,660.660217 500.750122,660.966675 494.950958,661.434814 &#10;&#9;C488.394135,661.964050 483.668732,665.192810 481.252869,671.408691 &#10;&#9;C480.293610,673.876709 479.472931,676.422424 478.860870,678.997375 &#10;&#9;C476.421173,689.260925 480.088837,695.366943 490.215302,698.060425 &#10;&#9;C492.460236,698.657471 494.721558,699.202087 496.992706,699.690308 &#10;&#9;C516.716431,703.929626 530.941345,715.034851 539.514648,733.395508 &#10;&#9;C543.117920,741.112244 545.797607,749.137390 548.295532,757.244568 &#10;&#9;C551.247375,766.825073 554.760010,776.154663 560.814697,784.288269 &#10;&#9;C567.872620,793.769653 578.088257,796.670471 589.035828,792.377686 &#10;&#9;C591.979004,791.223572 594.885071,789.969727 597.854126,788.887634 &#10;&#9;C600.421509,787.951965 601.142029,786.520325 600.925903,783.610107 &#10;&#9;C599.539062,764.941589 595.418823,746.849426 589.666138,729.122864 &#10;&#9;C581.075989,702.653015 568.665222,678.070862 552.401062,655.459045 &#10;&#9;C551.006104,653.519653 549.791748,651.657288 546.777710,652.762451 &#10;&#9;C535.951111,656.732483 524.640076,658.608948 512.368835,660.282410 &#10;M265.712250,557.370544 &#10;&#9;C255.434189,560.138306 245.313431,563.397217 235.411545,567.301331 &#10;&#9;C225.304413,571.286316 225.615250,569.147034 227.173752,580.974243 &#10;&#9;C227.666672,584.715027 229.051636,585.619202 232.488770,585.713989 &#10;&#9;C243.501022,586.017456 254.453857,585.066772 265.258972,583.388550 &#10;&#9;C300.100067,577.977356 333.323395,567.026855 365.565826,552.949341 &#10;&#9;C366.701965,552.453308 368.218384,552.368896 368.732574,550.091248 &#10;&#9;C334.115082,546.413330 300.114380,548.606567 265.712250,557.370544 &#10;z"/>
</svg>